<?xml version="1.0" standalone="no"?>
<!DOCTYPE svg PUBLIC "-//W3C//DTD SVG 20010904//EN"
 "http://www.w3.org/TR/2001/REC-SVG-20010904/DTD/svg10.dtd">
<svg version="1.0" xmlns="http://www.w3.org/2000/svg"
 width="88.000000pt" height="88.000000pt" viewBox="0 0 88.000000 88.000000"
 preserveAspectRatio="xMidYMid meet">
<metadata>
Created by potrace 1.14, written by Peter Selinger 2001-2017
</metadata>
<g transform="translate(0.000000,88.000000) scale(0.100000,-0.100000)"
fill="#000000" stroke="none">
<path d="M240 780 c-40 -40 -13 -110 41 -110 9 0 20 -8 23 -17 14 -36 -46 -40
-92 -6 -36 26 -93 44 -123 39 -13 -3 -30 -5 -37 -5 -19 -1 -52 -39 -52 -60 0
-11 5 -32 12 -48 6 -15 12 -34 14 -41 6 -32 14 -40 43 -47 32 -7 119 -95 147
-148 14 -26 13 -29 -5 -45 -33 -28 -32 -82 4 -117 31 -32 56 -31 94 0 28 25
32 25 59 11 17 -9 49 -18 72 -22 31 -5 44 -13 50 -30 29 -75 153 -74 189 3 5
12 20 23 32 25 31 4 59 47 66 97 4 31 8 39 14 28 16 -29 69 -5 70 32 0 14 4
35 8 46 4 11 5 33 0 50 -4 16 -10 42 -13 58 -5 22 -12 27 -35 27 -16 0 -32 -6
-34 -12 -3 -7 -6 -3 -6 9 -1 13 -8 41 -17 63 -13 33 -23 42 -55 50 -22 6 -44
8 -49 5 -12 -8 -21 10 -14 29 3 9 17 16 29 16 27 0 65 43 65 72 0 10 -11 30
-25 43 -24 25 -24 25 -240 25 -202 0 -216 -1 -235 -20z m276 -113 c3 -3 7 -13
8 -24 2 -12 -5 -20 -23 -23 -41 -9 -80 0 -75 16 2 8 6 20 8 28 4 12 70 15 82
3z"/>
</g>
</svg>
